<svg xmlns="http://www.w3.org/2000/svg" viewBox="0 0 100 100">
  <defs>
    <linearGradient id="bg" x1="0" y1="0" x2="1" y2="1">
      <stop offset="0" stop-color="#2c3a48"/>
      <stop offset="100%" stop-color="#10161c"/>
    </linearGradient>
  </defs>
  <rect x="4" y="4" width="92" height="92" rx="18" fill="url(#bg)" stroke="#c9a227" stroke-width="3"/>
  <g fill="#e8c547">
    <rect x="48" y="34" width="40" height="7" rx="3" transform="rotate(-22 48 37)"/>
    <path d="M28 50 h28 a5 5 0 0 1 5 5 v2 h-38 v-2 a5 5 0 0 1 5 -5 z"/>
    <rect x="18" y="57" width="58" height="12" rx="4"/>
    <rect x="15" y="69" width="64" height="10" rx="5" fill="#10161c"/>
    <circle cx="26" cy="74" r="3.2"/><circle cx="38" cy="74" r="3.2"/><circle cx="50" cy="74" r="3.2"/><circle cx="62" cy="74" r="3.2"/><circle cx="71" cy="74" r="3.2"/>
  </g>
</svg>
