<svg xmlns="http://www.w3.org/2000/svg" width="480" height="480" viewBox="0 0 480 480" fill="none">
  <defs>
    <radialGradient id="bg" cx="50%" cy="38%" r="78%">
      <stop offset="0%" stop-color="#2c3a48"/>
      <stop offset="55%" stop-color="#1a2230"/>
      <stop offset="100%" stop-color="#0e1318"/>
    </radialGradient>
    <linearGradient id="gold" x1="0" y1="0" x2="1" y2="1">
      <stop offset="0%" stop-color="#8a6d1d"/>
      <stop offset="50%" stop-color="#e8c547"/>
      <stop offset="100%" stop-color="#8a6d1d"/>
    </linearGradient>
  </defs>

  <rect width="480" height="480" rx="36" fill="url(#bg)"/>
  <rect x="14" y="14" width="452" height="452" rx="28" fill="none" stroke="url(#gold)" stroke-width="3"/>
  <rect x="26" y="26" width="428" height="428" rx="22" fill="none" stroke="#e8c547" stroke-width="1" opacity="0.35"/>

  <!-- Tank emblem -->
  <g fill="#cdb45a" transform="translate(240 200)">
    <rect x="-6" y="-58" width="96" height="13" rx="5" transform="rotate(-24 -6 -52)"/>
    <path d="M-58 -34 h60 a10 10 0 0 1 10 10 v4 h-80 v-4 a10 10 0 0 1 10 -10 z"/>
    <rect x="-78" y="-20" width="140" height="26" rx="8"/>
    <rect x="-86" y="6" width="156" height="22" rx="11" fill="#10161c"/>
    <g fill="#cdb45a">
      <circle cx="-66" cy="17" r="7"/><circle cx="-40" cy="17" r="7"/><circle cx="-14" cy="17" r="7"/>
      <circle cx="12" cy="17" r="7"/><circle cx="38" cy="17" r="7"/>
    </g>
  </g>

  <text x="240" y="372" text-anchor="middle" font-family="Georgia, 'Times New Roman', serif" font-size="40" font-weight="700" letter-spacing="4" fill="url(#gold)">TANK DAWGS</text>
  <text x="240" y="404" text-anchor="middle" font-family="Georgia, serif" font-size="17" letter-spacing="7" fill="#d8cba8">MEMBERSHIP PASS</text>
</svg>
